<mxfile host="app.diagrams.net" modified="2023-10-24T09:02:40.384Z" agent="Mozilla/5.0 (Windows NT 10.0; Win64; x64) AppleWebKit/537.36 (KHTML, like Gecko) Chrome/118.0.0.0 Safari/537.36" etag="IFST1enC6OTaaLTBSSED" version="22.0.6" type="github">
  <diagram name="페이지-1" id="ddqdeQ2nx9fSf0zS1vjd">
    <mxGraphModel dx="963" dy="667" grid="1" gridSize="10" guides="1" tooltips="1" connect="1" arrows="1" fold="1" page="1" pageScale="1" pageWidth="827" pageHeight="1169" math="0" shadow="0">
      <root>
        <mxCell id="0" />
        <mxCell id="1" parent="0" />
        <mxCell id="OxMzDLT9HJ0QfYX7-7aQ-46" value="" style="edgeStyle=orthogonalEdgeStyle;rounded=0;orthogonalLoop=1;jettySize=auto;html=1;" edge="1" parent="1" source="OxMzDLT9HJ0QfYX7-7aQ-1" target="OxMzDLT9HJ0QfYX7-7aQ-45">
          <mxGeometry relative="1" as="geometry" />
        </mxCell>
        <mxCell id="OxMzDLT9HJ0QfYX7-7aQ-68" style="edgeStyle=orthogonalEdgeStyle;rounded=0;orthogonalLoop=1;jettySize=auto;html=1;entryX=0;entryY=0.5;entryDx=0;entryDy=0;" edge="1" parent="1" source="OxMzDLT9HJ0QfYX7-7aQ-1" target="OxMzDLT9HJ0QfYX7-7aQ-74">
          <mxGeometry relative="1" as="geometry">
            <mxPoint x="430" y="300" as="targetPoint" />
            <Array as="points">
              <mxPoint x="250" y="610" />
              <mxPoint x="340" y="610" />
              <mxPoint x="340" y="290" />
            </Array>
          </mxGeometry>
        </mxCell>
        <mxCell id="OxMzDLT9HJ0QfYX7-7aQ-1" value="Start frist motion" style="rounded=0;whiteSpace=wrap;html=1;" vertex="1" parent="1">
          <mxGeometry x="190" y="540" width="120" height="60" as="geometry" />
        </mxCell>
        <mxCell id="OxMzDLT9HJ0QfYX7-7aQ-4" style="edgeStyle=orthogonalEdgeStyle;rounded=0;orthogonalLoop=1;jettySize=auto;html=1;exitX=0.5;exitY=1;exitDx=0;exitDy=0;entryX=0.5;entryY=0;entryDx=0;entryDy=0;" edge="1" parent="1" source="OxMzDLT9HJ0QfYX7-7aQ-2" target="OxMzDLT9HJ0QfYX7-7aQ-1">
          <mxGeometry relative="1" as="geometry">
            <mxPoint x="250" y="400" as="targetPoint" />
          </mxGeometry>
        </mxCell>
        <mxCell id="OxMzDLT9HJ0QfYX7-7aQ-2" value="Operating Motion" style="rounded=1;whiteSpace=wrap;html=1;" vertex="1" parent="1">
          <mxGeometry x="190" y="450" width="120" height="60" as="geometry" />
        </mxCell>
        <mxCell id="OxMzDLT9HJ0QfYX7-7aQ-49" style="edgeStyle=orthogonalEdgeStyle;rounded=0;orthogonalLoop=1;jettySize=auto;html=1;entryX=0;entryY=0.5;entryDx=0;entryDy=0;exitX=0;exitY=0.5;exitDx=0;exitDy=0;" edge="1" parent="1" source="OxMzDLT9HJ0QfYX7-7aQ-45" target="OxMzDLT9HJ0QfYX7-7aQ-1">
          <mxGeometry relative="1" as="geometry" />
        </mxCell>
        <mxCell id="OxMzDLT9HJ0QfYX7-7aQ-58" style="edgeStyle=orthogonalEdgeStyle;rounded=0;orthogonalLoop=1;jettySize=auto;html=1;entryX=0.5;entryY=0;entryDx=0;entryDy=0;" edge="1" parent="1" source="OxMzDLT9HJ0QfYX7-7aQ-45" target="OxMzDLT9HJ0QfYX7-7aQ-57">
          <mxGeometry relative="1" as="geometry" />
        </mxCell>
        <mxCell id="OxMzDLT9HJ0QfYX7-7aQ-45" value="Reach to target point" style="rhombus;whiteSpace=wrap;html=1;rounded=0;" vertex="1" parent="1">
          <mxGeometry x="190" y="630" width="120" height="80" as="geometry" />
        </mxCell>
        <mxCell id="OxMzDLT9HJ0QfYX7-7aQ-48" value="Yes" style="text;html=1;strokeColor=none;fillColor=none;align=center;verticalAlign=middle;whiteSpace=wrap;rounded=0;" vertex="1" parent="1">
          <mxGeometry x="250" y="605" width="60" height="30" as="geometry" />
        </mxCell>
        <mxCell id="OxMzDLT9HJ0QfYX7-7aQ-51" value="No" style="text;html=1;strokeColor=none;fillColor=none;align=center;verticalAlign=middle;whiteSpace=wrap;rounded=0;" vertex="1" parent="1">
          <mxGeometry x="120" y="610" width="60" height="30" as="geometry" />
        </mxCell>
        <mxCell id="OxMzDLT9HJ0QfYX7-7aQ-57" value="Stop frist motion" style="ellipse;whiteSpace=wrap;html=1;" vertex="1" parent="1">
          <mxGeometry x="190" y="750" width="120" height="80" as="geometry" />
        </mxCell>
        <mxCell id="OxMzDLT9HJ0QfYX7-7aQ-73" value="Excute thread function&amp;nbsp;" style="swimlane;whiteSpace=wrap;html=1;startSize=30;" vertex="1" parent="1">
          <mxGeometry x="350" y="350" width="250" height="530" as="geometry" />
        </mxCell>
        <mxCell id="OxMzDLT9HJ0QfYX7-7aQ-15" value="Check whether the near area of target point&amp;nbsp; has been reached" style="rhombus;whiteSpace=wrap;html=1;rounded=0;" vertex="1" parent="OxMzDLT9HJ0QfYX7-7aQ-73">
          <mxGeometry x="60" y="67.5" width="120" height="80" as="geometry" />
        </mxCell>
        <mxCell id="OxMzDLT9HJ0QfYX7-7aQ-17" value="Start Second motion" style="whiteSpace=wrap;html=1;rounded=0;" vertex="1" parent="OxMzDLT9HJ0QfYX7-7aQ-73">
          <mxGeometry x="60" y="192.5" width="120" height="60" as="geometry" />
        </mxCell>
        <mxCell id="OxMzDLT9HJ0QfYX7-7aQ-18" value="" style="edgeStyle=orthogonalEdgeStyle;rounded=0;orthogonalLoop=1;jettySize=auto;html=1;exitX=0.5;exitY=1;exitDx=0;exitDy=0;" edge="1" parent="OxMzDLT9HJ0QfYX7-7aQ-73" source="OxMzDLT9HJ0QfYX7-7aQ-15" target="OxMzDLT9HJ0QfYX7-7aQ-17">
          <mxGeometry relative="1" as="geometry" />
        </mxCell>
        <mxCell id="OxMzDLT9HJ0QfYX7-7aQ-19" value="Yes" style="text;html=1;strokeColor=none;fillColor=none;align=center;verticalAlign=middle;whiteSpace=wrap;rounded=0;" vertex="1" parent="OxMzDLT9HJ0QfYX7-7aQ-73">
          <mxGeometry x="60" y="157.5" width="60" height="30" as="geometry" />
        </mxCell>
        <mxCell id="OxMzDLT9HJ0QfYX7-7aQ-52" style="edgeStyle=orthogonalEdgeStyle;rounded=0;orthogonalLoop=1;jettySize=auto;html=1;entryX=1;entryY=0.5;entryDx=0;entryDy=0;" edge="1" parent="OxMzDLT9HJ0QfYX7-7aQ-73" source="OxMzDLT9HJ0QfYX7-7aQ-15" target="OxMzDLT9HJ0QfYX7-7aQ-15">
          <mxGeometry relative="1" as="geometry" />
        </mxCell>
        <mxCell id="OxMzDLT9HJ0QfYX7-7aQ-53" value="No" style="text;html=1;strokeColor=none;fillColor=none;align=center;verticalAlign=middle;whiteSpace=wrap;rounded=0;" vertex="1" parent="OxMzDLT9HJ0QfYX7-7aQ-73">
          <mxGeometry x="140" y="52.5" width="60" height="30" as="geometry" />
        </mxCell>
        <mxCell id="OxMzDLT9HJ0QfYX7-7aQ-63" style="edgeStyle=orthogonalEdgeStyle;rounded=0;orthogonalLoop=1;jettySize=auto;html=1;entryX=1;entryY=0.5;entryDx=0;entryDy=0;exitX=1;exitY=0.5;exitDx=0;exitDy=0;" edge="1" parent="OxMzDLT9HJ0QfYX7-7aQ-73" source="OxMzDLT9HJ0QfYX7-7aQ-60" target="OxMzDLT9HJ0QfYX7-7aQ-17">
          <mxGeometry relative="1" as="geometry" />
        </mxCell>
        <mxCell id="OxMzDLT9HJ0QfYX7-7aQ-60" value="Reach to target point" style="rhombus;whiteSpace=wrap;html=1;rounded=0;" vertex="1" parent="OxMzDLT9HJ0QfYX7-7aQ-73">
          <mxGeometry x="60" y="282.5" width="120" height="80" as="geometry" />
        </mxCell>
        <mxCell id="OxMzDLT9HJ0QfYX7-7aQ-62" style="edgeStyle=orthogonalEdgeStyle;rounded=0;orthogonalLoop=1;jettySize=auto;html=1;entryX=0.5;entryY=0;entryDx=0;entryDy=0;" edge="1" parent="OxMzDLT9HJ0QfYX7-7aQ-73" source="OxMzDLT9HJ0QfYX7-7aQ-17" target="OxMzDLT9HJ0QfYX7-7aQ-60">
          <mxGeometry relative="1" as="geometry" />
        </mxCell>
        <mxCell id="OxMzDLT9HJ0QfYX7-7aQ-61" value="Stop second motion" style="ellipse;whiteSpace=wrap;html=1;" vertex="1" parent="OxMzDLT9HJ0QfYX7-7aQ-73">
          <mxGeometry x="60" y="402.5" width="120" height="80" as="geometry" />
        </mxCell>
        <mxCell id="OxMzDLT9HJ0QfYX7-7aQ-59" style="edgeStyle=orthogonalEdgeStyle;rounded=0;orthogonalLoop=1;jettySize=auto;html=1;entryX=0.5;entryY=0;entryDx=0;entryDy=0;" edge="1" parent="OxMzDLT9HJ0QfYX7-7aQ-73" source="OxMzDLT9HJ0QfYX7-7aQ-60" target="OxMzDLT9HJ0QfYX7-7aQ-61">
          <mxGeometry relative="1" as="geometry" />
        </mxCell>
        <mxCell id="OxMzDLT9HJ0QfYX7-7aQ-64" value="No" style="text;html=1;strokeColor=none;fillColor=none;align=center;verticalAlign=middle;whiteSpace=wrap;rounded=0;" vertex="1" parent="OxMzDLT9HJ0QfYX7-7aQ-73">
          <mxGeometry x="190" y="262.5" width="60" height="30" as="geometry" />
        </mxCell>
        <mxCell id="OxMzDLT9HJ0QfYX7-7aQ-65" value="Yes" style="text;html=1;strokeColor=none;fillColor=none;align=center;verticalAlign=middle;whiteSpace=wrap;rounded=0;" vertex="1" parent="OxMzDLT9HJ0QfYX7-7aQ-73">
          <mxGeometry x="60" y="362.5" width="60" height="30" as="geometry" />
        </mxCell>
        <mxCell id="OxMzDLT9HJ0QfYX7-7aQ-75" style="edgeStyle=orthogonalEdgeStyle;rounded=0;orthogonalLoop=1;jettySize=auto;html=1;" edge="1" parent="1" source="OxMzDLT9HJ0QfYX7-7aQ-74" target="OxMzDLT9HJ0QfYX7-7aQ-73">
          <mxGeometry relative="1" as="geometry" />
        </mxCell>
        <mxCell id="OxMzDLT9HJ0QfYX7-7aQ-74" value="Using thread function for detecting to near area of target point" style="rounded=0;whiteSpace=wrap;html=1;" vertex="1" parent="1">
          <mxGeometry x="415" y="260" width="120" height="60" as="geometry" />
        </mxCell>
      </root>
    </mxGraphModel>
  </diagram>
</mxfile>
